HIERARCHY
ROOT Hips
{
  OFFSET 346.547 88.4868 223.89
  CHANNELS 6 Xposition Yposition Zposition Zrotation Xrotation Yrotation
  JOINT RightUpLeg
  {
    OFFSET -9.26971 -1.52262 -0.00348434
    CHANNELS 6 Xposition Yposition Zposition Zrotation Xrotation Yrotation
    JOINT RightLeg
    {
      OFFSET -0.00425862 -41.8682 0.0184652
      CHANNELS 6 Xposition Yposition Zposition Zrotation Xrotation Yrotation
      JOINT RightFoot
      {
        OFFSET -0.62369 -42.3057 -0.171503
        CHANNELS 6 Xposition Yposition Zposition Zrotation Xrotation Yrotation
        End Site
        {
          OFFSET 0 -7.69 17.5
        }
      }
    }
  }
  JOINT LeftUpLeg
  {
    OFFSET 9.29684 -1.68211 -0.0433351
    CHANNELS 6 Xposition Yposition Zposition Zrotation Xrotation Yrotation
    JOINT LeftLeg
    {
      OFFSET 0.0692631 -41.8566 -0.0943626
      CHANNELS 6 Xposition Yposition Zposition Zrotation Xrotation Yrotation
      JOINT LeftFoot
      {
        OFFSET 0.517419 -41.5265 0.441716
        CHANNELS 6 Xposition Yposition Zposition Zrotation Xrotation Yrotation
        End Site
        {
          OFFSET 0 -7.69 17.5
        }
      }
    }
  }
  JOINT Spine
  {
    OFFSET 0.0697006 14.3001 0.0552949
    CHANNELS 6 Xposition Yposition Zposition Zrotation Xrotation Yrotation
    JOINT Spine1
    {
      OFFSET 0.0442547 9.7157 0.0145407
      CHANNELS 6 Xposition Yposition Zposition Zrotation Xrotation Yrotation
      JOINT Spine2
      {
        OFFSET 0.0595675 10.1146 -0.00203466
        CHANNELS 6 Xposition Yposition Zposition Zrotation Xrotation Yrotation
        JOINT Spine3
        {
          OFFSET 0.0514263 9.71766 0.000100679
          CHANNELS 6 Xposition Yposition Zposition Zrotation Xrotation Yrotation
          JOINT Neck
          {
            OFFSET 0.115655 10.3797 0.0429429
            CHANNELS 6 Xposition Yposition Zposition Zrotation Xrotation Yrotation
            JOINT Head
            {
              OFFSET 0.0937003 9.46893 0.0188238
              CHANNELS 6 Xposition Yposition Zposition Zrotation Xrotation Yrotation
              End Site
              {
                OFFSET 0 15.95 0
              }
            }
          }
          JOINT RightShoulder
          {
            OFFSET -3.17023 6.91072 -0.0050072
            CHANNELS 6 Xposition Yposition Zposition Zrotation Xrotation Yrotation
            JOINT RightArm
            {
              OFFSET -12.7575 0.00694711 0.0313031
              CHANNELS 6 Xposition Yposition Zposition Zrotation Xrotation Yrotation
              JOINT RightForeArm
              {
                OFFSET -26.5152 -0.0619338 -0.0331286
                CHANNELS 6 Xposition Yposition Zposition Zrotation Xrotation Yrotation
                JOINT RightHand
                {
                  OFFSET -25.9898 0.0398378 -0.0269922
                  CHANNELS 6 Xposition Yposition Zposition Zrotation Xrotation Yrotation
                  JOINT RightHandThumb1
                  {
                    OFFSET -2.48905 0.190105 3.12053
                    CHANNELS 6 Xposition Yposition Zposition Zrotation Xrotation Yrotation
                    JOINT RightHandThumb2
                    {
                      OFFSET -3.68274 0 0
                      CHANNELS 6 Xposition Yposition Zposition Zrotation Xrotation Yrotation
                      JOINT RightHandThumb3
                      {
                        OFFSET -2.55832 0 0
                        CHANNELS 6 Xposition Yposition Zposition Zrotation Xrotation Yrotation
                        End Site
                        {
                          OFFSET -2.194 0 0
                        }
                      }
                    }
                  }
                  JOINT RightInHandIndex
                  {
                    OFFSET -3.22368 0.508421 1.97842
                    CHANNELS 6 Xposition Yposition Zposition Zrotation Xrotation Yrotation
                    JOINT RightHandIndex1
                    {
                      OFFSET -5.21684 -0.091368 0.999158
                      CHANNELS 6 Xposition Yposition Zposition Zrotation Xrotation Yrotation
                      JOINT RightHandIndex2
                      {
                        OFFSET -3.61937 0 0
                        CHANNELS 6 Xposition Yposition Zposition Zrotation Xrotation Yrotation
                        JOINT RightHandIndex3
                        {
                          OFFSET -2.0521 0 0
                          CHANNELS 6 Xposition Yposition Zposition Zrotation Xrotation Yrotation
                          End Site
                          {
                            OFFSET -1.805 0 0
                          }
                        }
                      }
                    }
                  }
                  JOINT RightInHandMiddle
                  {
                    OFFSET -3.38211 0.517263 0.756737
                    CHANNELS 6 Xposition Yposition Zposition Zrotation Xrotation Yrotation
                    JOINT RightHandMiddle1
                    {
                      OFFSET -5.17411 -0.084 0.313895
                      CHANNELS 6 Xposition Yposition Zposition Zrotation Xrotation Yrotation
                      JOINT RightHandMiddle2
                      {
                        OFFSET -3.94947 0 0
                        CHANNELS 6 Xposition Yposition Zposition Zrotation Xrotation Yrotation
                        JOINT RightHandMiddle3
                        {
                          OFFSET -2.47579 0 0
                          CHANNELS 6 Xposition Yposition Zposition Zrotation Xrotation Yrotation
                          End Site
                          {
                            OFFSET -1.975 0 0
                          }
                        }
                      }
                    }
                  }
                  JOINT RightInHandRing
                  {
                    OFFSET -3.36516 0.537895 -0.128947
                    CHANNELS 6 Xposition Yposition Zposition Zrotation Xrotation Yrotation
                    JOINT RightHandRing1
                    {
                      OFFSET -4.63474 -0.022105 -0.478947
                      CHANNELS 6 Xposition Yposition Zposition Zrotation Xrotation Yrotation
                      JOINT RightHandRing2
                      {
                        OFFSET -3.44238 0 0
                        CHANNELS 6 Xposition Yposition Zposition Zrotation Xrotation Yrotation
                        JOINT RightHandRing3
                        {
                          OFFSET -2.3881 0 0
                          CHANNELS 6 Xposition Yposition Zposition Zrotation Xrotation Yrotation
                          End Site
                          {
                            OFFSET -1.857 0 0
                          }
                        }
                      }
                    }
                  }
                  JOINT RightInHandPinky
                  {
                    OFFSET -3.16105 0.469368 -1.20179
                    CHANNELS 6 Xposition Yposition Zposition Zrotation Xrotation Yrotation
                    JOINT RightHandPinky1
                    {
                      OFFSET -4.14105 -0.022105 -1.09053
                      CHANNELS 6 Xposition Yposition Zposition Zrotation Xrotation Yrotation
                      JOINT RightHandPinky2
                      {
                        OFFSET -2.75653 0 0
                        CHANNELS 6 Xposition Yposition Zposition Zrotation Xrotation Yrotation
                        JOINT RightHandPinky3
                        {
                          OFFSET -1.74189 0 0
                          CHANNELS 6 Xposition Yposition Zposition Zrotation Xrotation Yrotation
                          End Site
                          {
                            OFFSET -1.645 0 0
                          }
                        }
                      }
                    }
                  }
                }
              }
            }
          }
          JOINT LeftShoulder
          {
            OFFSET 3.25182 6.92033 -0.0304417
            CHANNELS 6 Xposition Yposition Zposition Zrotation Xrotation Yrotation
            JOINT LeftArm
            {
              OFFSET 12.8499 -0.047638 -0.0610398
              CHANNELS 6 Xposition Yposition Zposition Zrotation Xrotation Yrotation
              JOINT LeftForeArm
              {
                OFFSET 26.496 -0.0565102 -0.0668766
                CHANNELS 6 Xposition Yposition Zposition Zrotation Xrotation Yrotation
                JOINT LeftHand
                {
                  OFFSET 25.9957 -0.039282 -0.027851
                  CHANNELS 6 Xposition Yposition Zposition Zrotation Xrotation Yrotation
                  JOINT LeftHandThumb1
                  {
                    OFFSET 2.48905 0.190105 3.12053
                    CHANNELS 6 Xposition Yposition Zposition Zrotation Xrotation Yrotation
                    JOINT LeftHandThumb2
                    {
                      OFFSET 3.68274 0 0
                      CHANNELS 6 Xposition Yposition Zposition Zrotation Xrotation Yrotation
                      JOINT LeftHandThumb3
                      {
                        OFFSET 2.55832 0 0
                        CHANNELS 6 Xposition Yposition Zposition Zrotation Xrotation Yrotation
                        End Site
                        {
                          OFFSET 2.194 0 0
                        }
                      }
                    }
                  }
                  JOINT LeftInHandIndex
                  {
                    OFFSET 3.22368 0.508421 1.97842
                    CHANNELS 6 Xposition Yposition Zposition Zrotation Xrotation Yrotation
                    JOINT LeftHandIndex1
                    {
                      OFFSET 5.21684 -0.091368 0.999158
                      CHANNELS 6 Xposition Yposition Zposition Zrotation Xrotation Yrotation
                      JOINT LeftHandIndex2
                      {
                        OFFSET 3.61937 0 0
                        CHANNELS 6 Xposition Yposition Zposition Zrotation Xrotation Yrotation
                        JOINT LeftHandIndex3
                        {
                          OFFSET 2.0521 0 0
                          CHANNELS 6 Xposition Yposition Zposition Zrotation Xrotation Yrotation
                          End Site
                          {
                            OFFSET 1.805 0 0
                          }
                        }
                      }
                    }
                  }
                  JOINT LeftInHandMiddle
                  {
                    OFFSET 3.38211 0.517263 0.756737
                    CHANNELS 6 Xposition Yposition Zposition Zrotation Xrotation Yrotation
                    JOINT LeftHandMiddle1
                    {
                      OFFSET 5.17411 -0.084 0.313895
                      CHANNELS 6 Xposition Yposition Zposition Zrotation Xrotation Yrotation
                      JOINT LeftHandMiddle2
                      {
                        OFFSET 3.94947 0 0
                        CHANNELS 6 Xposition Yposition Zposition Zrotation Xrotation Yrotation
                        JOINT LeftHandMiddle3
                        {
                          OFFSET 2.47579 0 0
                          CHANNELS 6 Xposition Yposition Zposition Zrotation Xrotation Yrotation
                          End Site
                          {
                            OFFSET 1.975 0 0
                          }
                        }
                      }
                    }
                  }
                  JOINT LeftInHandRing
                  {
                    OFFSET 3.36516 0.537895 -0.128947
                    CHANNELS 6 Xposition Yposition Zposition Zrotation Xrotation Yrotation
                    JOINT LeftHandRing1
                    {
                      OFFSET 4.63474 -0.022105 -0.478947
                      CHANNELS 6 Xposition Yposition Zposition Zrotation Xrotation Yrotation
                      JOINT LeftHandRing2
                      {
                        OFFSET 3.44238 0 0
                        CHANNELS 6 Xposition Yposition Zposition Zrotation Xrotation Yrotation
                        JOINT LeftHandRing3
                        {
                          OFFSET 2.3881 0 0
                          CHANNELS 6 Xposition Yposition Zposition Zrotation Xrotation Yrotation
                          End Site
                          {
                            OFFSET 1.857 0 0
                          }
                        }
                      }
                    }
                  }
                  JOINT LeftInHandPinky
                  {
                    OFFSET 3.16105 0.469368 -1.20179
                    CHANNELS 6 Xposition Yposition Zposition Zrotation Xrotation Yrotation
                    JOINT LeftHandPinky1
                    {
                      OFFSET 4.14105 -0.022105 -1.09053
                      CHANNELS 6 Xposition Yposition Zposition Zrotation Xrotation Yrotation
                      JOINT LeftHandPinky2
                      {
                        OFFSET 2.75653 0 0
                        CHANNELS 6 Xposition Yposition Zposition Zrotation Xrotation Yrotation
                        JOINT LeftHandPinky3
                        {
                          OFFSET 1.74189 0 0
                          CHANNELS 6 Xposition Yposition Zposition Zrotation Xrotation Yrotation
                          End Site
                          {
                            OFFSET 1.645 0 0
                          }
                        }
                      }
                    }
                  }
                }
              }
            }
          }
        }
      }
    }
  }
}
MOTION
Frames:	3
Frame Time:	0.00833333
346.547 88.4868 223.89 20.505 11.7461 -63.2795 -9.26971 -1.52262 -0.00348434 -15.46 -50.7602 -16.9712 -0.00425862 -41.8682 0.0184652 -3.97725 27.6054 -10.7316 -0.62369 -42.3057 -0.171503 10.0027 2.17614 22.0137 9.29684 -1.68211 -0.0433351 10.2003 -44.4101 -1.64499 0.0692631 -41.8566 -0.0943626 8.91827 33.0515 -5.31725 0.517419 -41.5265 0.441716 -15.3614 -12.6365 -17.5171 0.0697006 14.3001 0.0552949 -6.80243 16.9152 14.7867 0.0442547 9.7157 0.0145407 -1.28548 4.29709 3.49197 0.0595675 10.1146 -0.00203466 -2.16154 6.79597 5.72034 0.0514263 9.71766 0.000100679 -0.0736013 -0.21601 -0.580981 0.115655 10.3797 0.0429429 -0.0735646 -0.217005 -0.581376 0.0937003 9.46893 0.0188238 -1.68408 -4.04627 -10.3517 -3.17023 6.91072 -0.0050072 -2.266 -10.9824 26.1747 -12.7575 0.00694711 0.0313031 72.3978 -8.05969 55.2082 -26.5152 -0.0619338 -0.0331286 35.4672 -59.0384 19.9448 -25.9898 0.0398378 -0.0269922 22.0631 -26.6877 -21.8102 -2.48905 0.190105 3.12053 28.184 10.7294 19.1592 -3.68274 -1.42109e-14 -5.68434e-14 1.81923e-14 2.43511e-15 -10 -2.55832 -2.84217e-14 2.84217e-14 1.225e-14 5.36719e-15 -10 -3.22368 0.508421 1.97842 0 6.36111e-15 -0 -5.21684 -0.091368 0.999158 19.9818 0.871897 2.3964 -3.61937 0 -2.84217e-14 24 4.37326e-15 3.18055e-15 -2.0521 2.84217e-14 0 20 1.59028e-14 1.59028e-14 -3.38211 0.517263 0.756737 0 6.36111e-15 -0 -5.17411 -0.084 0.313895 20 2.38542e-15 6.36111e-15 -3.94947 1.42109e-14 0 24 1.03368e-14 -0 -2.47579 -2.84217e-14 -2.84217e-14 20 -1.59028e-15 1.27222e-14 -3.36516 0.537895 -0.128947 0 6.36111e-15 -0 -4.63474 -0.022105 -0.478947 19.9748 -1.02565 -2.81938 -3.44238 -1.42109e-14 5.68434e-14 24 -9.93923e-15 1.27222e-14 -2.3881 0 2.84217e-14 20 -4.77083e-15 -3.18055e-15 -3.16105 0.469368 -1.20179 0 6.36111e-15 -0 -4.14105 -0.022105 -1.09053 19.7815 -3.00948 -8.30515 -2.75653 -1.42109e-14 -2.84217e-14 24 5.56597e-15 -6.36111e-15 -1.74189 0 -2.84217e-14 20 1.59028e-15 1.59028e-14 3.25182 6.92033 -0.0304417 15.8186 -12.6991 -32.1358 12.8499 -0.047638 -0.0610398 -39.3994 23.5192 -73.8458 26.496 -0.0565102 -0.0668766 17.8239 -52.1373 26.7591 25.9957 -0.039282 -0.027851 -27.3274 -28.2121 9.25053 2.48905 0.190105 3.12053 -28.184 10.7294 -19.1592 3.68274 0 0 -2.10798e-15 -6.36111e-15 10 2.55832 0 -2.84217e-14 6.45924e-15 0 10 3.22368 0.508421 1.97842 3.53113e-31 -6.36111e-15 3.18055e-15 5.21684 -0.091368 0.999158 -19.9818 0.871897 -2.3964 3.61937 0 0 -24 -5.56597e-15 3.18055e-15 2.0521 -1.42109e-14 0 -20 0 -1.90833e-14 3.38211 0.517263 0.756737 3.53113e-31 -6.36111e-15 3.18055e-15 5.17411 -0.084 0.313895 -20 -6.36111e-15 -6.36111e-15 3.94947 0 0 -24 -1.59028e-15 3.18055e-15 2.47579 -1.42109e-14 2.84217e-14 -20 7.95139e-16 -6.36111e-15 3.36516 0.537895 -0.128947 3.53113e-31 -6.36111e-15 3.18055e-15 4.63474 -0.022105 -0.478947 -19.9748 -1.02565 2.81938 3.44238 0 2.84217e-14 -24 9.54166e-15 -0 2.3881 0 0 -20 7.95139e-16 -1.27222e-14 3.16105 0.469368 -1.20179 3.53113e-31 -6.36111e-15 3.18055e-15 4.14105 -0.022105 -1.09053 -19.7815 -3.00948 8.30515 2.75653 0 2.84217e-14 -24 3.97569e-15 3.18055e-15 1.74189 0 0 -20 3.97569e-15 -3.18055e-14 
346.576 88.4713 223.892 20.5358 11.6154 -63.5416 -9.27182 -1.51611 -0.00175448 -15.2862 -50.8123 -16.5913 -0.00464511 -41.8693 0.0265252 -3.98717 27.5645 -10.6963 -0.626239 -42.3039 -0.159521 9.99683 2.23501 21.9891 9.29723 -1.68335 -0.0436252 10.3044 -44.3655 -1.46861 0.0729834 -41.8561 -0.097029 8.78859 33.1866 -5.18746 0.518509 -41.525 0.44725 -15.3092 -12.7274 -17.4639 0.0731621 14.2998 0.0576283 -6.84257 16.8834 14.8324 0.0447328 9.71569 0.0147849 -1.295 4.29016 3.50118 0.0590452 10.1145 -0.00269113 -2.17676 6.78482 5.73345 0.0496841 9.71766 -0.000364442 -0.0827955 -0.213327 -0.574711 0.121306 10.3797 0.0434246 -0.0827732 -0.214398 -0.575061 0.0990298 9.46896 0.0191132 -1.84357 -4.00298 -10.2389 -3.15509 6.93706 0.021939 -2.14766 -10.7052 25.8942 -12.7573 0.0228931 0.0626446 72.6718 -8.18759 55.2278 -26.4976 -0.0550149 0.0852114 36.1605 -59.5988 20.5917 -25.992 -0.0593677 0.0363813 22.4801 -25.904 -21.8081 -2.48905 0.190105 3.12053 28.184 10.7294 19.1592 -3.68274 7.10543e-15 0 2.04405e-14 -3.13086e-15 -10 -2.55832 -1.42109e-14 -5.68434e-14 -5.5805e-15 -4.17448e-15 -10 -3.22368 0.508421 1.97842 3.18055e-15 3.18055e-15 3.18055e-15 -5.21684 -0.091368 0.999158 19.9818 0.871897 2.3964 -3.61937 0 0 24 1.98785e-15 -3.18055e-15 -2.0521 0 0 20 3.18055e-15 -1.59028e-14 -3.38211 0.517263 0.756737 3.18055e-15 3.18055e-15 3.18055e-15 -5.17411 -0.084 0.313895 20 -2.38542e-15 3.18055e-15 -3.94947 -1.42109e-14 -2.84217e-14 24 -2.38542e-15 6.36111e-15 -2.47579 2.84217e-14 0 20 -9.54166e-15 -6.36111e-15 -3.36516 0.537895 -0.128947 3.18055e-15 3.18055e-15 3.18055e-15 -4.63474 -0.022105 -0.478947 19.9748 -1.02565 -2.81938 -3.44238 0 0 24 -7.95139e-16 -1.27222e-14 -2.3881 0 -5.68434e-14 20 7.95139e-15 3.18055e-15 -3.16105 0.469368 -1.20179 3.18055e-15 3.18055e-15 3.18055e-15 -4.14105 -0.022105 -1.09053 19.7815 -3.00948 -8.30515 -2.75653 2.84217e-14 2.84217e-14 24 5.1684e-15 3.18055e-15 -1.74189 0 0 20 1.59028e-15 -0 3.25183 6.92036 -0.0313988 15.6954 -12.7689 -32.2116 12.8505 -0.0461617 -0.0614468 -39.1728 23.7288 -73.956 26.4957 -0.0567603 -0.0664357 17.8997 -51.6253 26.8516 25.9951 -0.0402352 -0.0274148 -27.1765 -28.1871 9.31213 2.48905 0.190105 3.12053 -28.184 10.7294 -19.1592 3.68274 0 0 6.45924e-15 0 10 2.55832 -2.84217e-14 2.84217e-14 -2.24327e-15 1.27222e-14 10 3.22368 0.508421 1.97842 0 6.36111e-15 -0 5.21684 -0.091368 0.999158 -19.9818 0.871897 -2.3964 3.61937 0 0 -24 0 3.18055e-15 2.0521 0 -2.84217e-14 -20 -2.38542e-15 1.27222e-14 3.38211 0.517263 0.756737 0 6.36111e-15 -0 5.17411 -0.084 0.313895 -20 3.18055e-15 -0 3.94947 0 0 -24 -4.77083e-15 -0 2.47579 0 2.84217e-14 -20 -3.97569e-15 6.36111e-15 3.36516 0.537895 -0.128947 0 6.36111e-15 -0 4.63474 -0.022105 -0.478947 -19.9748 -1.02565 2.81938 3.44238 5.68434e-14 -2.84217e-14 -24 -9.54166e-15 6.36111e-15 2.3881 0 -5.68434e-14 -20 6.36111e-15 6.36111e-15 3.16105 0.469368 -1.20179 0 6.36111e-15 -0 4.14105 -0.022105 -1.09053 -19.7815 -3.00948 8.30515 2.75653 -5.68434e-14 0 -24 -3.18055e-15 -0 1.74189 -1.42109e-14 0 -20 -7.15625e-15 9.54166e-15 
346.601 88.4556 223.9 20.5645 11.4896 -63.8191 -9.27468 -1.51363 -0.00288025 -15.0986 -50.8876 -16.2078 -0.00635317 -41.8715 0.0277899 -4.00481 27.5396 -10.6437 -0.629237 -42.3044 -0.156637 9.99371 2.29503 21.9653 9.29759 -1.68454 -0.0438831 10.408 -44.3159 -1.2852 0.079969 -41.8556 -0.0993708 8.66824 33.3183 -5.08195 0.520945 -41.523 0.447302 -15.2452 -12.8224 -17.3828 0.0770133 14.2995 0.0590021 -6.8657 16.8545 14.8689 0.0452315 9.71568 0.0150268 -1.30084 4.28274 3.50919 0.0585204 10.1145 -0.00315291 -2.18547 6.77251 5.74519 0.0479509 9.71766 -0.000816193 -0.0939015 -0.211374 -0.56773 0.130268 10.3796 0.0438462 -0.0938915 -0.212537 -0.568031 0.105836 9.46909 0.0193966 -2.03763 -3.96389 -10.1129 -3.13818 6.96564 0.0487348 -1.98152 -10.4152 25.557 -12.7558 0.0460117 0.0986954 72.8777 -8.22044 55.2212 -26.4716 -0.0474132 0.258367 36.7867 -60.5065 21.0771 -25.9945 -0.20618 0.120822 23.0966 -24.8546 -21.7977 -2.48905 0.190105 3.12053 28.184 10.7294 19.1592 -3.68274 2.13163e-14 0 1.35946e-15 3.13086e-15 -10 -2.55832 1.42109e-14 -2.84217e-14 4.45764e-15 2.38542e-15 -10 -3.22368 0.508421 1.97842 -6.36111e-15 6.36111e-15 9.54166e-15 -5.21684 -0.091368 0.999158 19.9818 0.871897 2.3964 -3.61937 0 8.52651e-14 24 0 3.18055e-15 -2.0521 0 0 20 -4.77083e-15 3.18055e-15 -3.38211 0.517263 0.756737 -6.36111e-15 6.36111e-15 9.54166e-15 -5.17411 -0.084 0.313895 20 -3.18055e-15 -3.18055e-15 -3.94947 -2.84217e-14 5.68434e-14 24 9.93923e-15 -9.54166e-15 -2.47579 2.84217e-14 0 20 0 -3.18055e-15 -3.36516 0.537895 -0.128947 -6.36111e-15 6.36111e-15 9.54166e-15 -4.63474 -0.022105 -0.478947 19.9748 -1.02565 -2.81938 -3.44238 -1.42109e-14 0 24 1.98785e-15 -3.18055e-15 -2.3881 0 -5.68434e-14 20 -3.18055e-15 9.54166e-15 -3.16105 0.469368 -1.20179 -6.36111e-15 6.36111e-15 9.54166e-15 -4.14105 -0.022105 -1.09053 19.7815 -3.00948 -8.30515 -2.75653 2.84217e-14 -1.42109e-14 24 -9.14409e-15 -0 -1.74189 -2.84217e-14 2.84217e-14 20 -1.11319e-14 -0 3.25186 6.9204 -0.0323689 15.577 -12.8356 -32.3017 12.851 -0.0417068 -0.0618452 -38.9913 23.9486 -74.0424 26.4953 -0.0570029 -0.0664527 17.9634 -51.071 26.8953 25.9932 -0.0435587 -0.0231433 -27.0188 -28.1003 9.41387 2.48905 0.190105 3.12053 -28.184 10.7294 -19.1592 3.68274 0 -2.84217e-14 -3.22962e-15 0 10 2.55832 0 0 -5.60818e-16 3.18055e-15 10 3.22368 0.508421 1.97842 0 0 -6.36111e-15 5.21684 -0.091368 0.999158 -19.9818 0.871897 -2.3964 3.61937 0 -5.68434e-14 -24 -4.77083e-15 9.54166e-15 2.0521 -2.84217e-14 2.84217e-14 -20 1.98785e-15 9.54166e-15 3.38211 0.517263 0.756737 0 0 -6.36111e-15 5.17411 -0.084 0.313895 -20 -3.18055e-15 -3.18055e-15 3.94947 0 5.68434e-14 -24 -3.97569e-15 9.54166e-15 2.47579 1.42109e-14 -2.84217e-14 -20 2.38542e-15 9.54166e-15 3.36516 0.537895 -0.128947 0 0 -6.36111e-15 4.63474 -0.022105 -0.478947 -19.9748 -1.02565 2.81938 3.44238 0 2.84217e-14 -24 5.56597e-15 -0 2.3881 0 -2.84217e-14 -20 4.77083e-15 -6.36111e-15 3.16105 0.469368 -1.20179 0 0 -6.36111e-15 4.14105 -0.022105 -1.09053 -19.7815 -3.00948 8.30515 2.75653 0 5.68434e-14 -24 -4.77083e-15 9.54166e-15 1.74189 -1.42109e-14 0 -20 7.95139e-16 3.18055e-15 
